<svg xmlns="http://www.w3.org/2000/svg" viewBox="0 0 472.32 146.2"><defs><style>.cls-1{fill:#fff}</style></defs><g id="Layer_2" data-name="Layer 2"><g id="Layer_1-2" data-name="Layer 1"><path class="cls-1" d="M0 72.29V0h19.13v56.27h27.36v16zM81.52 73.62a32.38 32.38 0 01-11.34-1.94A25.81 25.81 0 0161.11 66a26.64 26.64 0 01-6.06-9.18 32.47 32.47 0 01-2.22-12.34 31 31 0 012.28-12.18 29 29 0 016-9.18 25.86 25.86 0 018.51-5.78 25.49 25.49 0 019.9-2 25.11 25.11 0 0110.67 2.11 21.12 21.12 0 017.57 5.78 25 25 0 014.5 8.57 35.48 35.48 0 011.5 10.45 37.62 37.62 0 01-.28 4.78c-.18 1.49-.35 2.56-.5 3.23H71.29c.89 3.34 2.48 5.65 4.78 6.95a16.24 16.24 0 008.12 2 19 19 0 005.62-.84 29.74 29.74 0 005.72-2.5l6.23 11.34A33.33 33.33 0 0191.7 72a36.24 36.24 0 01-10.18 1.62zM71.07 37.81h16.46a9.74 9.74 0 00-1.62-5.61c-1.07-1.6-3.06-2.39-6-2.39a8.76 8.76 0 00-5.61 1.89q-2.3 1.89-3.23 6.11zM127.56 73.62a16.92 16.92 0 01-7-1.39 15.9 15.9 0 01-5.29-3.72 15.7 15.7 0 01-3.27-5.45 19.4 19.4 0 01-1.11-6.56A15.7 15.7 0 01118 42.87q7.11-4.93 23.13-6.61-.66-5.79-7.78-5.79a19.11 19.11 0 00-6.35 1.17 55.32 55.32 0 00-7.68 3.5l-6.67-12.45a55.16 55.16 0 0111.9-5.45 41.59 41.59 0 0112.57-1.89q10.78 0 17 6.17t6.17 19.85v30.92h-15.6L143.35 67h-.44a31 31 0 01-7.06 4.84 18.58 18.58 0 01-8.29 1.78zm6.67-14.68a6.55 6.55 0 003.84-1 20.61 20.61 0 003.06-2.73V47.6q-6.9 1-9.45 3c-1.71 1.34-2.56 2.78-2.56 4.34q0 4.01 5.11 4zM187.17 73.62a16.92 16.92 0 01-7-1.39 15.9 15.9 0 01-5.29-3.72 15.7 15.7 0 01-3.28-5.45 19.4 19.4 0 01-1.11-6.56 15.7 15.7 0 017.12-13.63q7.11-4.93 23.13-6.61-.66-5.79-7.78-5.79a19.11 19.11 0 00-6.34 1.17 55.32 55.32 0 00-7.68 3.5l-6.67-12.45a55.16 55.16 0 0111.9-5.45 41.59 41.59 0 0112.57-1.89q10.78 0 17 6.17t6.17 19.85v30.92H204.3L203 67h-.44a31 31 0 01-7.06 4.84 18.58 18.58 0 01-8.33 1.78zm6.68-14.68a6.54 6.54 0 003.83-1 20.61 20.61 0 003.06-2.73V47.6q-6.9 1-9.45 3c-1.71 1.34-2.56 2.78-2.56 4.34 0 2.67 1.7 4 5.12 4zM232.32 72.29V16.68h15.58l1.33 9.57h.44a21.48 21.48 0 017.4-8.29 16.07 16.07 0 018.4-2.61 23.84 23.84 0 014.11.28 11.35 11.35 0 012.78.83l-3.11 16.46c-1-.22-2-.43-2.95-.61A16.57 16.57 0 00263 32a11.87 11.87 0 00-6.28 2.06q-3.28 2.05-5.29 7.28v30.95zM278.81 72.29V16.68h15.57l1.34 6.67h.44a36.7 36.7 0 017.62-5.61 20.1 20.1 0 0110-2.39q9.12 0 13.24 6.17T331.08 38v34.29H312V40.48q0-5.34-1.33-7.12a5 5 0 00-4.23-1.78A8.22 8.22 0 00302 32.7a29.58 29.58 0 00-4 3.11v36.48zM374.68 73.62q-15.24 0-22.63-8.84t-7.4-27.41V0h19.13v39.59q0 9.67 2.61 13.63t8.29 3.94q5.67 0 8.4-3.94t2.72-13.63V0h18.46v37.37q0 18.57-7.23 27.41t-22.35 8.84zM418.27 91.86V16.68h15.57l1.34 5.12h.44a26.09 26.09 0 017-4.67 19.24 19.24 0 018.12-1.78A19.29 19.29 0 01466.49 23a26.2 26.2 0 014.33 8.9 42.29 42.29 0 011.5 11.68 38.85 38.85 0 01-1.94 12.79 29.67 29.67 0 01-5.17 9.39 22.19 22.19 0 01-7.4 5.84 19.61 19.61 0 01-8.62 2q-6.9 0-12.45-5.56l.66 8.46v15.36zm26.25-33.81a7.18 7.18 0 005.78-3.11q2.44-3.11 2.45-11.12 0-6.9-1.95-9.9a6.48 6.48 0 00-5.84-3 8.38 8.38 0 00-3.94.89 12.56 12.56 0 00-3.62 3.11v20.46a9 9 0 003.45 2.12 12.27 12.27 0 003.67.55zM113.61 91.41v1.42a53.38 53.38 0 00106.75 0v-1.42z"/></g></g></svg>